<svg width="100" height="100" viewBox="0 0 100 100" fill="none" xmlns="http://www.w3.org/2000/svg">
<rect width="100" height="100" fill="black"/>
<path d="M53.5302 72.7915C50.1445 72.7915 46.9859 72.2341 44.0544 71.1193C41.1641 69.9632 38.6249 68.353 36.4366 66.2885C34.2482 64.2241 32.5347 61.8087 31.2961 59.0423C30.0987 56.2346 29.5 53.1999 29.5 49.9381C29.5 46.635 30.0987 43.6002 31.2961 40.8338C32.5347 38.0675 34.2276 35.6727 36.3746 33.6496C38.5629 31.6264 41.1022 30.0574 43.9924 28.9426C46.8827 27.7865 50.0206 27.2085 53.4063 27.2085C56.8333 27.2085 59.9713 27.7452 62.8202 28.8187C65.318 29.7599 67.5302 31.0185 69.4567 32.5945C69.8987 32.956 69.9156 33.6171 69.5133 34.0224L62.7511 40.8356C62.3499 41.2397 61.6955 41.2236 61.2676 40.8479C60.4304 40.1128 59.4616 39.5094 58.361 39.0378C56.9572 38.4184 55.3056 38.1088 53.4063 38.1088C51.7548 38.1088 50.2271 38.3771 48.8233 38.9139C47.4607 39.4507 46.284 40.2352 45.2931 41.2674C44.3021 42.2996 43.5176 43.5589 42.9396 45.0453C42.4028 46.4904 42.1344 48.1214 42.1344 49.9381C42.1344 51.7961 42.4028 53.4683 42.9396 54.9547C43.5176 56.3998 44.3021 57.6385 45.2931 58.6707C46.284 59.7029 47.4607 60.5081 48.8233 61.0861C50.2271 61.6229 51.7548 61.8912 53.4063 61.8912C55.2643 61.8912 56.9159 61.6022 58.361 61.0242C59.5193 60.5737 60.5523 59.9603 61.4599 59.1839C61.8852 58.82 62.5257 58.8097 62.9215 59.2055L69.7411 66.0251C70.1513 66.4353 70.1286 67.1088 69.675 67.4703C67.6994 69.0449 65.5177 70.3026 63.1299 71.2432C60.4048 72.2754 57.2049 72.7915 53.5302 72.7915Z" fill="white"/>
<path d="M54.8822 48.3023C55.2728 47.9117 55.2767 47.2663 54.8067 46.9762C54.3727 46.7083 53.8921 46.5183 53.3866 46.4178C52.5521 46.2518 51.6871 46.337 50.901 46.6626C50.1149 46.9882 49.4431 47.5396 48.9704 48.2471C48.4976 48.9545 48.2453 49.7863 48.2453 50.6371C48.2453 51.488 48.4976 52.3198 48.9704 53.0272C49.4431 53.7347 50.1149 54.2861 50.901 54.6117C51.6871 54.9373 52.5521 55.0225 53.3866 54.8565C53.8921 54.756 54.3727 54.566 54.8068 54.2981C55.2767 54.008 55.2728 53.3625 54.8822 52.972L53.2545 51.3443C52.8639 50.9537 52.8639 50.3206 53.2545 49.93L54.8822 48.3023Z" fill="#42B556"/>
</svg>
