<svg width="214" height="197" viewBox="0 0 214 197" fill="none" xmlns="http://www.w3.org/2000/svg">
<path d="M105.748 74.7008C122.114 41.3452 153.514 8.46183 163.282 11.6581C173.875 19.2652 159.192 39.5147 128.922 78.0833C174.089 67.5131 206.125 61.7887 212.798 73.6481C215.712 81.1394 191.151 86.6389 135.819 97.0196C162.984 110.872 195.727 137.689 191.771 153.58C186.898 157.285 173.453 150.689 127.354 121.018L127.742 122.484L128.038 123.601L128.047 123.632C137.874 160.723 143.593 182.311 134.433 194.165C127.084 193.352 122.753 191.465 104.938 119.602C76.9557 180.069 66.5263 197.34 57.8171 196.847C53.6528 188.715 53.5359 179.998 70.4868 132.281C39.2693 162.407 26.9221 171.196 17.0761 167.734C11.2448 160.791 31.377 127.129 78.9992 92.2041C22.1783 82.2671 0.954875 76.1548 0.97059 63.3252C2.91436 56.3831 26.6294 52.7431 86.2189 71.1003C69.9603 33.9671 62.6146 15.0138 67.6142 0.291408C74.4859 -0.828305 79.4102 2.57634 105.748 74.7008Z" fill="#61C589"/>
</svg>
